<svg aria-hidden="true" style="position: absolute; width: 0; height: 0; overflow: hidden;" version="1.1" xmlns="http://www.w3.org/2000/svg" xmlns:xlink="http://www.w3.org/1999/xlink">
<defs>
<symbol id="icon-copy-paste" viewBox="0 0 28 32">
<path d="M14 1c-0.419 0-0.675-0.175-0.969-0.381-0.412-0.281-0.906-0.619-2.031-0.619-1.906 0-3.25 2.731-4.125 5.588-2.956 0.544-4.875 1.425-4.875 2.412 0 0.894 1.563 1.694 4.037 2.244-0.025 0.25-0.037 0.5-0.037 0.756 0 1.063 0.206 2.075 0.581 3h-3.744c-0.462 0-0.837 0.375-0.837 0.838 0 0.106 0.019 0.213 0.063 0.313l2.425 6.056c-2.725 2.031-4.487 5.281-4.487 8.938 0 1.025 0.831 1.856 1.856 1.856h24.288c1.025 0 1.856-0.831 1.856-1.856 0-3.656-1.762-6.9-4.481-8.938l2.419-6.056c0.038-0.1 0.063-0.206 0.063-0.313 0-0.463-0.375-0.838-0.837-0.838h-3.744c0.375-0.925 0.581-1.938 0.581-3 0-0.256-0.012-0.506-0.038-0.756 2.475-0.55 4.037-1.35 4.037-2.244 0-0.987-1.919-1.869-4.875-2.412-0.875-2.856-2.219-5.588-4.125-5.588-1.125 0-1.619 0.338-2.031 0.619-0.294 0.206-0.55 0.381-0.969 0.381zM17.5 14h-0.775c-1.031 0-1.944-0.662-2.269-1.637-0.144-0.438-0.762-0.438-0.906 0-0.325 0.975-1.244 1.637-2.269 1.637h-0.781c-1.381 0-2.5-1.119-2.5-2.5v-0.9c1.762 0.256 3.813 0.4 6 0.4s4.238-0.144 6-0.4v0.9c0 1.381-1.119 2.5-2.5 2.5zM12 20l1 2-2 8-3-12 4 2zM20 18l-3 12-2-8 1-2 4-2z"></path>
</symbol>
<symbol id="icon-js-where" viewBox="0 0 40 32">
<path d="M4 6c0-2.206 1.794-4 4-4h24c2.206 0 4 1.794 4 4v16h-4v-16h-24v16h-4v-16zM0 25.2c0-0.663 0.537-1.2 1.2-1.2h37.6c0.663 0 1.2 0.538 1.2 1.2 0 2.65-2.15 4.8-4.8 4.8h-30.4c-2.65 0-4.8-2.15-4.8-4.8zM17.563 13.063l-1.938 1.938 1.938 1.938c0.587 0.587 0.587 1.538 0 2.119s-1.538 0.587-2.119 0l-3-3c-0.588-0.588-0.588-1.537 0-2.119l3-3c0.588-0.588 1.537-0.588 2.119 0s0.587 1.537 0 2.119zM24.563 10.938l3 3c0.587 0.588 0.587 1.537 0 2.119l-3 3c-0.587 0.587-1.538 0.587-2.119 0s-0.587-1.538 0-2.119l1.938-1.938-1.938-1.938c-0.587-0.588-0.587-1.537 0-2.119s1.538-0.588 2.119 0z"></path>
</symbol>
<symbol id="icon-keep-calm" viewBox="0 0 40 32">
<path d="M25.438 2.938c0.587-0.587 1.538-0.587 2.119 0l1.075 1.075c0.119-0.006 0.244-0.013 0.363-0.013h2c0.7 0 1.369 0.144 1.975 0.406l0.969-0.969c0.587-0.587 1.538-0.587 2.119 0s0.587 1.537 0 2.119l-0.806 0.813c0.475 0.763 0.75 1.669 0.75 2.631 0 0.637 0.462 1.175 1.044 1.438 1.744 0.781 2.956 2.531 2.956 4.563 0 1.637-0.788 3.087-2 4v2c0 0.55-0.45 1-1 1h-2c-0.55 0-1-0.45-1-1v-1h-4v1c0 0.55-0.45 1-1 1h-2c-0.55 0-1-0.45-1-1v-1.1c-0.738-0.15-1.419-0.462-2-0.9-0.094-0.069-0.181-0.144-0.269-0.219-1.063-0.919-1.731-2.275-1.731-3.781 0-0.55-0.45-1-1-1s-1 0.45-1 1c0 2.794 1.637 5.2 4 6.325v0.675c0 1.106 0.894 2 2 2h2v4c0 1.106-0.894 2-2 2h-4c-1.106 0-2-0.894-2-2v-4.75c-1.238 0.481-2.587 0.75-4 0.75s-2.762-0.269-4-0.75v4.75c0 1.106-0.894 2-2 2h-4c-1.106 0-2-0.894-2-2v-7.431l-1.131 2.538c-0.337 0.756-1.225 1.1-1.981 0.762s-1.094-1.219-0.756-1.975l1.369-3.087c0.331-0.744 0.5-1.544 0.5-2.356 0-6.719 5.325-12.2 11.988-12.444l0.012-0.006h4c2.606 0 5.212 0.756 7.325 1.606 0.106-0.112 0.219-0.225 0.331-0.325l-0.219-0.219c-0.587-0.588-0.587-1.538 0-2.119zM30 14.5c0-0.828-0.672-1.5-1.5-1.5s-1.5 0.672-1.5 1.5v0c0 0.828 0.672 1.5 1.5 1.5s1.5-0.672 1.5-1.5v0zM35.5 16c0.828 0 1.5-0.672 1.5-1.5s-0.672-1.5-1.5-1.5v0c-0.828 0-1.5 0.672-1.5 1.5s0.672 1.5 1.5 1.5v0zM30 9c0-0.552-0.448-1-1-1s-1 0.448-1 1v0c0 0.552 0.448 1 1 1s1-0.448 1-1v0zM33 10c0.552 0 1-0.448 1-1s-0.448-1-1-1v0c-0.552 0-1 0.448-1 1s0.448 1 1 1v0z"></path>
</symbol>
<symbol id="icon-plus" viewBox="0 0 28 32">
<path d="M15 5c0-1.106-0.894-2-2-2s-2 0.894-2 2v9h-9c-1.106 0-2 0.894-2 2s0.894 2 2 2h9v9c0 1.106 0.894 2 2 2s2-0.894 2-2v-9h9c1.106 0 2-0.894 2-2s-0.894-2-2-2h-9v-9z"></path>
</symbol>
<symbol id="icon-relax" viewBox="0 0 36 32">
<path d="M21.644 16.988l-3.756-1.369-4.512 12.381h-11.375c-1.106 0-2 0.894-2 2s0.894 2 2 2h32c1.106 0 2-0.894 2-2s-0.894-2-2-2h-16.369l4.006-11.012zM29.212 16.975l-0.206 0.569 4.231 1.538c1.131 0.413 2.375-0.262 2.475-1.462 0.406-4.906-1.494-9.719-5.050-13.031 0.125 0.5 0.2 1.019 0.212 1.55l0.012 0.375c0.113 3.563-0.456 7.112-1.675 10.462zM28.875 6.194c-0.069-2.15-1.406-4.050-3.4-4.838-0.056-0.025-0.119-0.044-0.175-0.069-2.063-0.731-4.363-0.15-5.819 1.488l-0.25 0.281c-2.206 2.462-3.919 5.331-5.056 8.444l-0.206 0.569 13.156 4.787 0.206-0.569c1.131-3.113 1.663-6.406 1.556-9.719l-0.012-0.375zM6.7 7.056c-0.694 0.981-0.175 2.3 0.956 2.713l4.438 1.613 0.206-0.569c1.219-3.35 3.069-6.438 5.444-9.094l0.25-0.281c0.387-0.431 0.819-0.813 1.281-1.137-4.975 0.156-9.669 2.638-12.575 6.75z"></path>
</symbol>
<symbol id="icon-work-life" viewBox="0 0 32 32">
<path d="M13.106 0.212c0.988-0.494 2.188-0.094 2.681 0.894l1.563 3.125 2.65 0.531c1.219 0.244 2.363 0.769 3.344 1.531l7.881 6.131c0.875 0.681 1.031 1.938 0.35 2.806s-1.938 1.031-2.806 0.35l-4.506-3.506-4.469 1.988 2.069 1.725c1.45 1.206 2.094 3.125 1.669 4.962l-1.087 4.7c-0.137 0.587-0.512 1.050-1.006 1.313l5.406 2.069c0.288 0.113 0.587 0.163 0.894 0.163h1.762c0.831 0 1.5 0.669 1.5 1.5s-0.669 1.5-1.5 1.5h-1.762c-0.675 0-1.337-0.125-1.969-0.363l-22.012-8.425c-0.719-0.275-1.375-0.7-1.925-1.25l-1.394-1.394c-0.588-0.587-0.588-1.538 0-2.119s1.538-0.587 2.119 0l1.4 1.4c0.25 0.25 0.544 0.444 0.875 0.569l1.4 0.538c-0.050-0.1-0.094-0.2-0.131-0.306-0.35-1.050 0.219-2.181 1.263-2.531l4.638-1.556v-3.325c0-1.512 0.856-2.9 2.213-3.575l2.825-1.412-0.469-0.094c-1.213-0.244-2.244-1.031-2.794-2.131l-1.563-3.125c-0.494-0.988-0.094-2.188 0.894-2.681zM8.688 21.881l9.938 3.806c-0.131-0.35-0.163-0.744-0.069-1.137l1.087-4.7c0.087-0.369-0.044-0.75-0.337-0.994l-3.3-2.75v1.175c0 1.294-0.825 2.438-2.050 2.844l-5.269 1.756zM27 0c1.657 0 3 1.343 3 3s-1.343 3-3 3v0c-1.657 0-3-1.343-3-3s1.343-3 3-3v0z"></path>
</symbol>
<symbol id="icon-xmark" viewBox="0 0 20 32">
<path d="M19.413 9.412c0.781-0.781 0.781-2.050 0-2.831s-2.050-0.781-2.831 0l-6.581 6.587-6.588-6.581c-0.781-0.781-2.050-0.781-2.831 0s-0.781 2.050 0 2.831l6.588 6.581-6.581 6.587c-0.781 0.781-0.781 2.050 0 2.831s2.050 0.781 2.831 0l6.581-6.588 6.587 6.581c0.781 0.781 2.050 0.781 2.831 0s0.781-2.050 0-2.831l-6.588-6.581 6.581-6.588z"></path>
</symbol>
</defs>
</svg>
